<svg width="45" height="45" viewBox="0 0 45 45" fill="none" xmlns="http://www.w3.org/2000/svg">
<circle cx="22.5" cy="22.5" r="22.5" fill="#EF7F7F" fill-opacity="0.52"/>
<path d="M29.0516 13.8296L29.8545 14.4444C31.7356 15.8863 33.1002 17.8978 33.7447 20.1786C34.3893 22.4595 34.2793 24.8877 33.4311 27.1009C32.5829 29.3142 31.042 31.1939 29.0382 32.4599C27.0344 33.7259 24.6751 34.3102 22.3121 34.1257C19.9491 33.9412 17.709 32.9978 15.9259 31.4362C14.1429 29.8746 12.9124 27.7785 12.418 25.4604C11.9236 23.1423 12.1917 20.7265 13.1825 18.5733C14.1732 16.4201 15.8334 14.6448 17.9155 13.5123" stroke="#E8605D" stroke-width="3" stroke-linecap="round" stroke-linejoin="round"/>
<path d="M23.0385 12.4138L23.0386 22.398" stroke="#E8605D" stroke-width="3" stroke-linecap="round" stroke-linejoin="round"/>
<circle cx="23" cy="27" r="2" fill="#E8605D"/>
</svg>
