<svg width="60" height="61" viewBox="0 0 60 61" fill="none" xmlns="http://www.w3.org/2000/svg">
<path d="M30.5675 61C33.5772 61 36.0945 58.7575 36.5684 55.8421C36.657 55.297 36.2009 54.8462 35.6486 54.8462H25.4864C24.9341 54.8462 24.478 55.297 24.5666 55.8421C25.0405 58.7575 27.5578 61 30.5675 61ZM51.022 44.7762C49.6053 43.3425 48.8107 41.4081 48.8107 39.3924V27.1538C48.8107 17.9866 44.143 10.2683 35.8913 7.90811C35.4467 7.78093 35.1283 7.38159 35.1283 6.91912V5.61538C35.1283 3.06154 33.0911 1 30.5675 1C28.0438 1 26.0067 3.06154 26.0067 5.61538V6.91976C26.0067 7.38193 25.6887 7.7811 25.2444 7.90853C17.02 10.2676 12.3242 17.9574 12.3242 27.1538V39.3924C12.3242 41.4081 11.5297 43.3425 10.1129 44.7762L7.49301 47.4275C6.69224 48.2379 6.24316 49.3312 6.24316 50.4705C6.24316 51.1878 6.82464 51.7692 7.54193 51.7692H53.593C54.3103 51.7692 54.8918 51.1878 54.8918 50.4705C54.8918 49.3312 54.4427 48.2379 53.642 47.4275L51.022 44.7762ZM42.7297 44.6154C42.7297 45.1677 42.2819 45.6154 41.7297 45.6154H19.4053C18.853 45.6154 18.4053 45.1677 18.4053 44.6154V27.1538C18.4053 19.5231 22.9965 13.3077 30.5675 13.3077C38.1384 13.3077 42.7297 19.5231 42.7297 27.1538V44.6154Z" fill="white"/>
<path d="M13.5405 3.43237C7.48344 7.82742 3.44537 14.8595 3 22.8918" stroke="white" stroke-width="5" stroke-linecap="round"/>
<path d="M46.7837 3.43237C52.8408 7.82742 56.8788 14.8595 57.3242 22.8918" stroke="white" stroke-width="5" stroke-linecap="round"/>
</svg>
